<svg xmlns="http://www.w3.org/2000/svg" width="439" height="288" viewBox="0 0 439 288" fill="none">
    <style>@media (prefers-color-scheme:light){.path-element{fill:#D0E1D7}}</style>
    <path d="M424.324 94.1891L385.955 51.5494L343.537 17.6488C332.245 6.35677 316.951 0.0234222 301.02 0.0234222H137.163C121.231 0.0234222 105.913 6.38132 94.6458 17.6488L52.227 51.5494L13.8587 94.1891C2.56665 105.457 0.0136719 120.774 0.0136719 136.706V283.478C0.0136719 285.81 1.90386 287.7 4.23591 287.7H48.1766C50.5087 287.7 52.3989 285.81 52.3989 283.478V77.4229C52.3989 66.4009 59.4932 56.0662 71.1534 52.6541C73.4118 51.9913 75.793 51.7458 78.1496 51.7458H217.042L178.845 94.1891C167.553 105.481 165 120.774 165 136.706V283.478C165 285.81 166.89 287.7 169.222 287.7H213.163C215.495 287.7 217.385 285.81 217.385 283.478V77.4229C217.385 66.4009 224.48 56.0662 236.14 52.6541C238.398 51.9913 240.779 51.7458 243.136 51.7458H360.033C362.39 51.7458 364.771 51.9913 367.029 52.6541C378.689 56.0662 385.784 66.4009 385.784 77.4229V283.502C385.784 285.834 387.674 287.725 390.006 287.725H433.947C436.279 287.725 438.169 285.834 438.169 283.502V136.731C438.169 120.799 435.616 105.481 424.324 94.2136V94.1891Z" fill="#68746B"/>
</svg>