<svg width="512" height="512" viewBox="0 0 512 512" fill="none" xmlns="http://www.w3.org/2000/svg">
    <style>@media (prefers-color-scheme:light){.path-element{fill:#D0E1D7}}</style>
    <g clip-path="url(#clip0_3675_1868)">
        <path class="path-element" d="M461.324 206.189L422.955 163.549L380.537 129.649C369.245 118.357 353.951 112.023 338.02 112.023H174.163C158.231 112.023 142.913 118.381 131.646 129.649L89.227 163.549L50.8587 206.189C39.5667 217.457 37.0137 232.774 37.0137 248.706V395.478C37.0137 397.81 38.9039 399.7 41.2359 399.7H85.1766C87.5087 399.7 89.3989 397.81 89.3989 395.478V189.423C89.3989 178.401 96.4932 168.066 108.153 164.654C110.412 163.991 112.793 163.746 115.15 163.746H254.042L215.845 206.189C204.553 217.481 202 232.774 202 248.706V395.478C202 397.81 203.89 399.7 206.222 399.7H250.163C252.495 399.7 254.385 397.81 254.385 395.478V189.423C254.385 178.401 261.48 168.066 273.14 164.654C275.398 163.991 277.779 163.746 280.136 163.746H397.033C399.39 163.746 401.771 163.991 404.029 164.654C415.689 168.066 422.784 178.401 422.784 189.423V395.502C422.784 397.834 424.674 399.725 427.006 399.725H470.947C473.279 399.725 475.169 397.834 475.169 395.502V248.731C475.169 232.799 472.616 217.481 461.324 206.214V206.189Z" fill="#68746B"/>
    </g>
    <defs>
    <clipPath id="clip0_3675_1868">
    <rect width="438.155" height="287.726" fill="white" transform="translate(37 112)"/>
    </clipPath>
    </defs>
</svg>
